<?xml version="1.0" standalone="no"?>
<!DOCTYPE svg PUBLIC "-//W3C//DTD SVG 20010904//EN"
 "http://www.w3.org/TR/2001/REC-SVG-20010904/DTD/svg10.dtd">
<svg version="1.0" xmlns="http://www.w3.org/2000/svg"
 width="677.000000pt" height="369.000000pt" viewBox="0 0 677.000000 369.000000"
 preserveAspectRatio="xMidYMid meet">

<g transform="translate(0.000000,369.000000) scale(0.100000,-0.100000)"
fill="#000000" stroke="none">
<path d="M990 3324 c-1 -36 210 -398 256 -439 6 -5 30 -36 54 -68 40 -57 66
-86 195 -225 94 -101 325 -323 405 -388 19 -16 44 -37 55 -48 38 -35 370 -302
455 -366 96 -72 199 -156 218 -179 17 -20 15 -113 -4 -208 -44 -223 -55 -320
-43 -366 17 -63 144 -182 477 -450 104 -83 202 -161 217 -172 16 -11 44 -32
63 -48 19 -15 40 -27 46 -27 6 0 30 15 52 33 23 17 52 39 64 47 25 17 328 258
376 299 16 14 56 49 88 76 123 105 213 200 225 238 14 40 3 128 -40 349 -22
111 -25 207 -6 229 18 23 121 107 217 179 84 63 416 330 455 366 11 11 46 41
78 67 106 90 323 302 437 428 157 172 281 342 377 514 42 77 82 173 59 142
-79 -104 -353 -360 -489 -459 -189 -136 -473 -322 -527 -345 -8 -3 -22 -11
-30 -18 -25 -20 -254 -142 -600 -318 -241 -123 -355 -186 -388 -217 -27 -26
-27 -47 -2 -186 31 -163 60 -354 60 -395 0 -48 -25 -117 -53 -147 -40 -44
-147 -114 -249 -164 l-101 -50 -61 29 c-163 77 -280 156 -316 216 -11 17 -23
52 -26 77 -8 49 15 238 46 380 32 146 36 207 14 231 -31 34 -147 100 -424 241
-146 75 -294 151 -330 170 -36 20 -101 54 -145 78 -44 23 -87 48 -95 54 -14
11 -42 27 -85 50 -11 6 -33 20 -50 30 -16 11 -55 35 -85 54 -229 146 -373 252
-533 392 -103 90 -272 264 -294 304 -7 11 -12 16 -13 10z"/>
</g>
</svg>
