<svg width="30" height="30" viewBox="0 0 30 30" fill="none" xmlns="http://www.w3.org/2000/svg">
<path d="M25.5924 4.40764C19.7166 -1.46822 10.2854 -1.47021 4.40764 4.40764C-1.46822 10.2834 -1.47021 19.7146 4.40764 25.5924C10.2834 31.4682 19.7146 31.4702 25.5924 25.5924C31.4682 19.7166 31.4702 10.2854 25.5924 4.40764ZM15 28.2396C7.69966 28.2396 1.76042 22.3003 1.76042 15C1.76042 7.69966 7.69966 1.76042 15 1.76042C22.3003 1.76042 28.2396 7.69966 28.2396 15C28.2396 22.3003 22.3003 28.2396 15 28.2396Z" fill="white"/>
<path d="M19.3148 10.1351C18.9518 9.81294 18.3964 9.84604 18.0743 10.2091C17.7521 10.572 17.7852 11.1275 18.1482 11.4496C19.1631 12.3503 19.7452 13.6444 19.7452 15.0001C19.7452 17.6166 17.6166 19.7453 15 19.7453C12.3835 19.7453 10.2549 17.6166 10.2549 15.0001C10.2549 13.631 10.8466 12.3284 11.8783 11.4263C12.2436 11.1068 12.2809 10.5517 11.9614 10.1863C11.6419 9.82097 11.0868 9.78383 10.7214 10.1033C9.30802 11.3391 8.49736 13.1239 8.49736 15.0001C8.49736 18.5857 11.4144 21.5027 15 21.5027C18.5856 21.5027 21.5026 18.5857 21.5026 15.0001C21.5027 13.1422 20.7052 11.3691 19.3148 10.1351Z" fill="white"/>
<path d="M15 13.5355C15.4853 13.5355 15.8788 13.142 15.8788 12.6568V7.97018C15.8788 7.48488 15.4853 7.09145 15 7.09145C14.5147 7.09145 14.1213 7.48488 14.1213 7.97018V12.6568C14.1213 13.1421 14.5147 13.5355 15 13.5355Z" fill="white"/>
</svg>
